<svg xmlns="http://www.w3.org/2000/svg" width="126" height="126" viewBox="0 0 126 126">
    <defs>
        <radialGradient id="prefix__a" cx="49.197%" cy="8.221%" r="95.44%" fx="49.197%" fy="8.221%" gradientTransform="matrix(.62318 0 0 1 .185 0)">
            <stop offset="18.17%" stop-color="#036"/>
            <stop offset="100%" stop-color="#000D41"/>
        </radialGradient>
        <radialGradient id="prefix__b" cx="49.752%" cy="98.886%" r="119.223%" fx="49.752%" fy="98.886%" gradientTransform="matrix(.51765 0 0 1 .24 0)">
            <stop offset="18.17%" stop-color="#036"/>
            <stop offset="100%" stop-color="#000D41"/>
        </radialGradient>
        <radialGradient id="prefix__c" cx="595.09%" cy="55.874%" r="464.3%" fx="595.09%" fy="55.874%" gradientTransform="matrix(1 0 0 .0909 0 .508)">
            <stop offset="18.17%" stop-color="#036"/>
            <stop offset="100%" stop-color="#000D41"/>
        </radialGradient>
        <radialGradient id="prefix__d" cx="-454.91%" cy="55.874%" r="464.3%" fx="-454.91%" fy="55.874%" gradientTransform="matrix(1 0 0 .0909 0 .508)">
            <stop offset="18.17%" stop-color="#036"/>
            <stop offset="100%" stop-color="#000D41"/>
        </radialGradient>
    </defs>
    <g fill="none" fill-rule="evenodd">
        <path fill="#05283F" fill-rule="nonzero" stroke="#05283F" stroke-width="2.844" d="M18.5 13.7c0-.5-.3-.9-.7-1.1l-1.6-.8V8.1c0-2.9-2.5-5.3-5.6-5.3H8.9c-3.1 0-5.6 2.4-5.6 5.3v3.6l-1.6.8c-.4.2-.7.6-.7 1.1v1l2.3-.4v14.1c0 1.8 1.6 3.3 3.5 3.3h5.9c1.9 0 3.5-1.5 3.5-3.3v-14l2.3.4v-1h0z" opacity=".02" transform="rotate(45 -20.734 104.684)"/>
        <path fill="#05283F" fill-rule="nonzero" stroke="#05283F" stroke-width="1.73" d="M18.5 13.7c0-.5-.3-.9-.7-1.1l-1.6-.8V8.1c0-2.9-2.5-5.3-5.6-5.3H8.9c-3.1 0-5.6 2.4-5.6 5.3v3.6l-1.6.8c-.4.2-.7.6-.7 1.1v1l2.3-.4v14.1c0 1.8 1.6 3.3 3.5 3.3h5.9c1.9 0 3.5-1.5 3.5-3.3v-14l2.3.4v-1h0z" opacity=".02" transform="rotate(45 -20.734 104.684)"/>
        <path fill="#05283F" fill-rule="nonzero" stroke="#05283F" stroke-width="2.422" d="M18.5 13.7c0-.5-.3-.9-.7-1.1l-1.6-.8V8.1c0-2.9-2.5-5.3-5.6-5.3H8.9c-3.1 0-5.6 2.4-5.6 5.3v3.6l-1.6.8c-.4.2-.7.6-.7 1.1v1l2.3-.4v14.1c0 1.8 1.6 3.3 3.5 3.3h5.9c1.9 0 3.5-1.5 3.5-3.3v-14l2.3.4v-1h0z" opacity=".02" transform="rotate(45 -20.734 104.684)"/>
        <path fill="#05283F" fill-rule="nonzero" stroke="#05283F" stroke-width="1.038" d="M18.5 13.7c0-.5-.3-.9-.7-1.1l-1.6-.8V8.1c0-2.9-2.5-5.3-5.6-5.3H8.9c-3.1 0-5.6 2.4-5.6 5.3v3.6l-1.6.8c-.4.2-.7.6-.7 1.1v1l2.3-.4v14.1c0 1.8 1.6 3.3 3.5 3.3h5.9c1.9 0 3.5-1.5 3.5-3.3v-14l2.3.4v-1h0z" opacity=".06" transform="rotate(45 -20.734 104.684)"/>
        <g fill-rule="nonzero">
            <path fill="#FFF" d="M18.5 2.8v1.1l-2.4-.5-1.7-1.1L16.1.7l1.7.9c.4.3.7.7.7 1.2zM.5 2.8v1.1l2.4-.5 1.7-1.1L2.9.7l-1.7.9c-.4.3-.7.7-.7 1.2z" transform="rotate(45 -20.734 104.684) translate(0 9)"/>
            <path fill="#000D41" d="M4.1 2.6L4.1 2.5.5 3.2.5 3.9 2.9 3.4zM14.9 2.6L14.9 2.5 18.5 3.2 18.5 3.9 16.1 3.4z" transform="rotate(45 -20.734 104.684) translate(0 9)"/>
        </g>
        <path fill="#FFF" fill-rule="nonzero" d="M2.9 5.7v22.1c0 2 1.6 3.5 3.5 3.5h6.1c2 0 3.5-1.6 3.5-3.5V5.7C16 2.5 13.4 0 10.3 0H8.7C5.5 0 2.9 2.6 2.9 5.7z" transform="rotate(45 -20.734 104.684)"/>
        <g fill="#D1DFEB" fill-rule="nonzero" opacity=".7">
            <g opacity=".3">
                <path d="M1.1 1v10.8l.4-.5c.3-.4.5-.9.5-1.4V3.3c0-.8-.3-1.7-.9-2.3z" transform="rotate(45 -20.734 104.684) translate(4 12)"/>
                <path d="M1.1 1L.9.5v11.6l.6-.8c.3-.4.5-.9.5-1.4V3.3c0-.8-.3-1.7-.9-2.3z" transform="rotate(45 -20.734 104.684) translate(4 12)"/>
                <path d="M1.3 1.3v10.3l.2-.2c.3-.5.5-1 .5-1.5V3.3c0-.7-.3-1.4-.7-2z" transform="rotate(45 -20.734 104.684) translate(4 12)"/>
                <path d="M1.5 1.6v9.6c.3-.4.5-.8.5-1.3V3.3c0-.6-.2-1.2-.5-1.7z" transform="rotate(45 -20.734 104.684) translate(4 12)"/>
                <path d="M1.7 2.1v8.8c.1-.3.2-.6.2-1V3.3c.1-.4 0-.8-.2-1.2z" transform="rotate(45 -20.734 104.684) translate(4 12)"/>
            </g>
            <g opacity=".3">
                <path d="M1.9 1v10.8l-.4-.5c-.3-.4-.5-.9-.5-1.4V3.3c0-.8.3-1.7.9-2.3z" transform="rotate(45 -20.734 104.684) translate(4 12) translate(8)"/>
                <path d="M1.9 1l.2-.5v11.6l-.6-.8c-.3-.4-.5-.9-.5-1.4V3.3c0-.8.3-1.7.9-2.3z" transform="rotate(45 -20.734 104.684) translate(4 12) translate(8)"/>
                <path d="M1.7 1.3v10.3l-.2-.2C1.2 11 1 10.5 1 10V3.4c0-.8.3-1.5.7-2.1z" transform="rotate(45 -20.734 104.684) translate(4 12) translate(8)"/>
                <path d="M1.5 1.6v9.6c-.3-.4-.4-.9-.4-1.3V3.3c-.1-.6.1-1.2.4-1.7z" transform="rotate(45 -20.734 104.684) translate(4 12) translate(8)"/>
                <path d="M1.3 2.1v8.8c-.1-.3-.2-.6-.2-1V3.3c-.1-.4 0-.8.2-1.2z" transform="rotate(45 -20.734 104.684) translate(4 12) translate(8)"/>
            </g>
        </g>
        <g fill="#D1DFEB" fill-rule="nonzero">
            <g opacity=".4">
                <path d="M8.3 2C10.4 2 12 3.7 12 5.7v22.1c0 .9-.7 1.5-1.5 1.5h-6c-.9 0-1.5-.7-1.5-1.5V5.7C2.9 3.7 4.6 2 6.7 2h1.6m0-2H6.7C3.5 0 .9 2.6.9 5.7v22.1c0 2 1.6 3.5 3.5 3.5h6.1c2 0 3.5-1.6 3.5-3.5V5.7C14.1 2.6 11.5 0 8.3 0z" opacity=".3" transform="rotate(45 -20.734 104.684) translate(2)"/>
            </g>
            <g opacity=".6">
                <path d="M8.3 1.6c2.3 0 4.1 1.9 4.1 4.1v22.1c0 1.1-.9 1.9-1.9 1.9h-6c-1.1 0-1.9-.9-1.9-1.9V5.7c0-2.3 1.9-4.1 4.1-4.1h1.6m0-1.6H6.7C3.5 0 .9 2.6.9 5.7v22.1c0 2 1.6 3.5 3.5 3.5h6.1c2 0 3.5-1.6 3.5-3.5V5.7C14.1 2.6 11.5 0 8.3 0z" opacity=".3" transform="rotate(45 -20.734 104.684) translate(2)"/>
            </g>
            <g opacity=".4">
                <path d="M8.3 1.2c2.5 0 4.5 2 4.5 4.5v22.1c0 1.3-1.1 2.3-2.3 2.3h-6c-1.3 0-2.3-1.1-2.3-2.3V5.7c0-2.5 2-4.5 4.5-4.5h1.6m0-1.2H6.7C3.5 0 .9 2.6.9 5.7v22.1c0 2 1.6 3.5 3.5 3.5h6.1c2 0 3.5-1.6 3.5-3.5V5.7C14.1 2.6 11.5 0 8.3 0z" opacity=".3" transform="rotate(45 -20.734 104.684) translate(2)"/>
            </g>
            <g opacity=".6">
                <path d="M8.3.8c2.7 0 4.9 2.2 4.9 4.9v22.1c0 1.5-1.2 2.7-2.7 2.7h-6c-1.5 0-2.7-1.2-2.7-2.7V5.7C1.8 3 4 .8 6.7.8h1.6m0-.8H6.7C3.5 0 .9 2.6.9 5.7v22.1c0 2 1.6 3.5 3.5 3.5h6.1c2 0 3.5-1.6 3.5-3.5V5.7C14.1 2.6 11.5 0 8.3 0z" opacity=".3" transform="rotate(45 -20.734 104.684) translate(2)"/>
            </g>
        </g>
        <path fill="#000D41" fill-rule="nonzero" d="M8.4 0.7H10.7V1.7H8.4z" transform="rotate(45 -20.734 104.684)"/>
        <g stroke="#FFF" stroke-width=".355">
            <path d="M2.1 0C1.4.3.7.7.2 1.2M8.8 1.2C8.3.7 7.6.2 6.9 0" transform="rotate(45 -20.734 104.684) translate(5 1)"/>
        </g>
        <g fill-rule="nonzero">
            <path fill="url(#prefix__a)" d="M1.7 1.9L2.2 6s1.8-.6 4.3-.6 4.3.6 4.3.6l.5-4.1c.1-.7-.3-1.3-1-1.5C9.4.2 8.1 0 6.5 0 4.9 0 3.6.2 2.7.4c-.6.2-1.1.8-1 1.5z" transform="rotate(45 -20.734 104.684) translate(3 8)"/>
            <path fill="url(#prefix__b)" d="M2.6 18.3l-.4-2.9s1.9.6 4.3.6 4.2-.6 4.2-.6l-.4 2.9c-.1.6-.5 1.1-1.1 1.2-.7.1-1.7.3-2.8.3-1.1 0-2.1-.1-2.8-.3-.5-.1-.9-.6-1-1.2z" transform="rotate(45 -20.734 104.684) translate(3 8)"/>
            <path fill="url(#prefix__c)" d="M1.7 9v4c0 .5-.1 1-.4 1.4l-.6 1v-11l.9 4.1c.1.2.1.3.1.5z" transform="rotate(45 -20.734 104.684) translate(3 8)"/>
            <path fill="url(#prefix__d)" d="M11.2 9v4c0 .5.1 1 .4 1.4l.6 1v-11l-.9 4.1c0 .2-.1.3-.1.5z" transform="rotate(45 -20.734 104.684) translate(3 8)"/>
        </g>
        <g stroke="#F4214E">
            <path stroke-linecap="round" stroke-linejoin="round" stroke-width=".533" d="M.4.8c.6.6 1.4 1 2.4 1h5.5c.9 0 1.8-.4 2.4-1" opacity=".1" transform="rotate(45 -20.734 104.684) translate(4 29)"/>
            <path stroke-linecap="round" stroke-linejoin="round" stroke-width=".711" d="M.4.8c.6.6 1.4 1 2.4 1h5.5c.9 0 1.8-.4 2.4-1" opacity=".1" transform="rotate(45 -20.734 104.684) translate(4 29)"/>
            <path stroke-linecap="round" stroke-linejoin="round" stroke-width=".96" d="M.4.8c.6.6 1.4 1 2.4 1h5.5c.9 0 1.8-.4 2.4-1" opacity=".1" transform="rotate(45 -20.734 104.684) translate(4 29)"/>
            <path stroke-width=".355" d="M.4.8c.6.6 1.4 1 2.4 1h5.5c.9 0 1.8-.4 2.4-1" transform="rotate(45 -20.734 104.684) translate(4 29)"/>
        </g>
    </g>
</svg>
