<svg xmlns="http://www.w3.org/2000/svg" width="32" height="32" viewBox="0 0 32 32">
    <path fill="#899FDC" fill-rule="evenodd" d="M16.215 3.065l7.615 7.616a.406.406 0 0 1 .02.02l.094.093A10.777 10.777 0 0 1 27 18.316c0 5.957-4.828 10.786-10.784 10.786S5.43 24.273 5.43 18.316c0-2.926 1.17-5.577 3.063-7.52l-.005-.002.07-.07c.02-.022.043-.042.063-.063l7.593-7.596zm-5.22 12.583c-.93 0-1.701.312-2.313.936-.612.625-.918 1.411-.918 2.359 0 .943.31 1.724.93 2.345.623.621 1.398.932 2.329.932.942 0 1.713-.322 2.313-.968.6-.645.903-1.466.909-2.462h-3.357v1.054h1.89c-.078.21-.203.397-.374.562-.17.165-.376.292-.616.383a2.16 2.16 0 0 1-.765.135 1.91 1.91 0 0 1-.987-.252 1.722 1.722 0 0 1-.661-.702 2.198 2.198 0 0 1-.234-1.027c0-.588.174-1.068.522-1.44.348-.372.8-.559 1.36-.559.263 0 .51.045.742.135.23.091.43.218.599.383.168.165.297.361.387.59h1.404a2.818 2.818 0 0 0-1.098-1.734c-.588-.446-1.276-.67-2.062-.67zm11.422.135h-1.368v6.302h3.78v-1.27h-2.412v-5.032zm-4.584 0h-2.421v6.302h1.368v-1.972h1.053c.637 0 1.168-.205 1.594-.616.426-.411.64-.928.64-1.549 0-.621-.214-1.137-.64-1.549-.426-.411-.957-.616-1.594-.616zm-.054 1.26c.271 0 .487.086.652.257a.903.903 0 0 1 .248.653c0 .264-.083.48-.248.648-.165.168-.38.252-.652.252h-.999v-1.81z"/>
</svg>
