<svg xmlns="http://www.w3.org/2000/svg" width="32" height="32" viewBox="0 0 32 32">
    <path fill="#899FDC" fill-rule="evenodd" d="M18.56 21.252c-.6.646-1.37.968-2.313.968-.93 0-1.707-.311-2.328-.932-.62-.621-.93-1.402-.93-2.345 0-.948.304-1.734.917-2.359.612-.624 1.383-.936 2.313-.936.787 0 1.474.224 2.063.67a2.818 2.818 0 0 1 1.098 1.734h-1.404a1.673 1.673 0 0 0-.387-.59 1.778 1.778 0 0 0-.6-.383 2.028 2.028 0 0 0-.742-.135c-.559 0-1.011.187-1.36.559-.348.372-.521.852-.521 1.44 0 .384.078.726.234 1.027.155.3.377.534.66.702.286.168.614.252.987.252.27 0 .526-.045.765-.135.24-.091.445-.218.616-.383.171-.165.296-.352.375-.562h-1.89V18.79h3.357c-.006.996-.308 1.817-.91 2.462m5.378-10.455l.006-.003-.093-.093-.02-.02-7.616-7.616-7.592 7.596-.063.063-.07.07.005.002a10.739 10.739 0 0 0-3.064 7.52c0 5.957 4.828 10.786 10.784 10.786C22.172 29.102 27 24.273 27 18.316a10.74 10.74 0 0 0-3.063-7.519"/>
</svg>
