<svg xmlns="http://www.w3.org/2000/svg" width="32" height="32" viewBox="0 0 32 32">
    <g fill="none" fill-rule="evenodd">
        <path fill="#899FDC" d="M16.214 3.066l7.616 7.615.02.02.093.092A10.776 10.776 0 0 1 27 18.317c0 5.956-4.828 10.785-10.785 10.785-5.956 0-10.785-4.83-10.785-10.785 0-2.928 1.17-5.578 3.064-7.521l-.005-.002.07-.07.063-.063 7.592-7.595zm-.229 12.718H13.6v6.301h2.386c.925 0 1.688-.299 2.292-.896.603-.598.904-1.352.904-2.265 0-.912-.3-1.663-.904-2.255-.604-.59-1.367-.886-2.292-.886zm-.035 1.269c.54 0 .98.174 1.323.52.342.35.513.8.513 1.352 0 .553-.17 1.006-.513 1.359-.343.355-.783.532-1.323.532h-.98v-3.763z"/>
    </g>
</svg>
