<svg xmlns="http://www.w3.org/2000/svg" width="80" height="40" viewBox="0 0 80 40">
    <g fill="none" fill-rule="evenodd">
        <path fill="#090E1E" d="M39 32H41V40H39z"/>
        <rect width="80" height="24" y="8" fill="#090E1E" rx="12"/>
        <path fill="#FFF" fill-rule="nonzero" d="M20.196 24c1.232 0 2.25-.398 3.054-1.194.804-.796 1.206-1.802 1.206-3.018 0-1.216-.402-2.218-1.206-3.006-.804-.788-1.822-1.182-3.054-1.182h-3.18V24h3.18zm-.048-1.692H18.84v-5.016h1.308c.72 0 1.308.232 1.764.696.456.464.684 1.064.684 1.8s-.228 1.34-.684 1.812c-.456.472-1.044.708-1.764.708zm8.88 1.872c.752 0 1.416-.208 1.992-.624.576-.416.984-.976 1.224-1.68h-1.848c-.136.232-.324.414-.564.546-.24.132-.508.198-.804.198-.432 0-.786-.118-1.062-.354s-.45-.574-.522-1.014h4.896c.024-.176.036-.348.036-.516 0-.616-.138-1.184-.414-1.704-.276-.52-.672-.932-1.188-1.236-.516-.304-1.098-.456-1.746-.456-.384 0-.748.056-1.092.168-.344.112-.652.27-.924.474-.272.204-.51.446-.714.726-.204.28-.36.596-.468.948-.108.352-.162.72-.162 1.104 0 .968.32 1.78.96 2.436.64.656 1.44.984 2.4.984zm1.596-4.128h-3.132c.096-.384.278-.684.546-.9.268-.216.598-.324.99-.324.256 0 .49.048.702.144.212.096.394.234.546.414.152.18.268.402.348.666zm5.604 4.128c.816 0 1.472-.198 1.968-.594.496-.396.744-.926.744-1.59 0-.152-.01-.296-.03-.432-.02-.136-.058-.256-.114-.36-.056-.104-.112-.2-.168-.288-.056-.088-.134-.168-.234-.24-.1-.072-.184-.134-.252-.186-.068-.052-.168-.102-.3-.15l-.312-.114c-.076-.028-.19-.058-.342-.09-.152-.032-.26-.054-.324-.066-.064-.012-.172-.034-.324-.066l-.396-.072c-.088-.016-.196-.042-.324-.078s-.222-.074-.282-.114c-.06-.04-.112-.094-.156-.162s-.066-.142-.066-.222c0-.192.076-.344.228-.456.152-.112.364-.168.636-.168.648 0 .972.256.972.768h1.668c0-.648-.238-1.17-.714-1.566-.476-.396-1.104-.594-1.884-.594-.78 0-1.41.192-1.89.576-.48.384-.72.88-.72 1.488 0 .296.052.556.156.78.104.224.226.4.366.528.14.128.328.242.564.342.236.1.44.17.612.21.172.04.39.08.654.12.416.072.728.156.936.252.208.096.312.244.312.444 0 .136-.044.254-.132.354-.088.1-.2.174-.336.222-.136.048-.288.072-.456.072-.208 0-.392-.03-.552-.09-.16-.06-.286-.156-.378-.288-.092-.132-.142-.294-.15-.486h-1.704c0 .456.114.86.342 1.212.228.352.548.624.96.816.412.192.886.288 1.422.288zm8.196-.18v-1.56h-.792c-.32 0-.566-.086-.738-.258-.172-.172-.258-.414-.258-.726v-2.532h1.752V17.52H42.6v-1.692h-1.716v1.692h-1.176v1.404h1.176v2.76c0 .48.092.894.276 1.242.184.348.45.614.798.798.348.184.758.276 1.23.276h1.236zm3.252-7.344v-1.632h-1.752v1.632h1.752zm0 7.344v-6.48h-1.752V24h1.752zm3.732 0v-3.408c0-.344.058-.644.174-.9.116-.256.284-.452.504-.588.22-.136.478-.204.774-.204.752 0 1.128.484 1.128 1.452V24h1.752v-3.924c0-.824-.214-1.482-.642-1.974-.428-.492-1.01-.738-1.746-.738-.224 0-.438.022-.642.066-.204.044-.398.108-.582.192-.184.084-.354.184-.51.3-.156.116-.294.25-.414.402l-.348-.804h-1.2V24h1.752zm9.324.18c.992 0 1.822-.326 2.49-.978.668-.652 1.002-1.466 1.002-2.442 0-.984-.332-1.8-.996-2.448-.664-.648-1.496-.972-2.496-.972-1.008 0-1.844.324-2.508.972-.664.648-.996 1.464-.996 2.448 0 .64.15 1.222.45 1.746.3.524.718.934 1.254 1.23.536.296 1.136.444 1.8.444zm0-1.644c-.256 0-.49-.044-.702-.132-.212-.088-.394-.208-.546-.36-.152-.152-.27-.34-.354-.564-.084-.224-.126-.464-.126-.72 0-.52.16-.946.48-1.278.32-.332.734-.498 1.242-.498s.922.166 1.242.498c.32.332.48.758.48 1.278s-.16.946-.48 1.278c-.32.332-.732.498-1.236.498z"/>
    </g>
</svg>
