<svg xmlns="http://www.w3.org/2000/svg" width="24" height="24" viewBox="0 0 24 24">
    <path fill="#CAE9FF" fill-rule="evenodd" d="M16 4c2.209 0 4 1.791 4 4 0 1.253-.576 2.371-1.478 3.104.305.563.478 1.209.478 1.896 0 2.209-1.791 4-4 4-.541 0-1.057-.107-1.527-.302C12.933 17.484 12.026 18 11 18c-.775 0-1.481-.294-2.014-.776C8.876 18.223 8.029 19 7 19c-.384 0-.742-.108-1.047-.295.031.092.047.191.047.295 0 .552-.447 1-1 1-.553 0-1-.448-1-1s.447-1 1-1c.104 0 .203.016.297.045C5.108 17.742 5 17.384 5 17c0-.832.508-1.545 1.23-1.846C6.082 14.799 6 14.409 6 14c0-1.657 1.343-3 3-3l.005-.176c.028-.481.169-.931.396-1.324C9.146 9.059 9 8.546 9 8c0-1.657 1.343-3 3-3 .398 0 .778.078 1.126.219C13.853 4.467 14.872 4 16 4"/>
</svg>
