<svg xmlns="http://www.w3.org/2000/svg" width="32" height="32" viewBox="0 0 32 32">
    <path fill="#CAE9FF" fill-rule="evenodd" d="M7.448 8.781c1.041-1.041 2.73-1.041 3.77 0 .637.636.878 1.511.74 2.332.814-.284 1.685-.446 2.598-.446h5.555c4.357 0 7.889 3.532 7.889 7.889v.221c0 3.463-2.232 6.395-5.333 7.459V28H20v-1.333h-5.333V28H12v-1.764c-1.833-.63-3.36-1.91-4.304-3.57H4v-8h3.696c.579-1.015 1.373-1.889 2.324-2.56l-2.912-2.91c.097-.147.21-.285.34-.415zm13.885 4.552H16V16h5.333v-2.667zM18.667 2.667c1.472 0 2.666 1.194 2.666 2.666S20.14 8 18.667 8 16 6.805 16 5.333c0-1.472 1.195-2.666 2.667-2.666z"/>
</svg>
