<svg xmlns="http://www.w3.org/2000/svg" width="16" height="16" viewBox="0 0 16 16">
    <path fill="#090E1E" fill-rule="evenodd" d="M8.667 4c.368 0 .666.298.666.667V6.39l.748.747c.124.124.296.196.471.196H12v1.333h-1.448c-.449 0-.87-.155-1.219-.425v1.17l1.25 1c.477.382.75.952.75 1.562v2.693H10v-2.693c0-.203-.091-.393-.25-.521L6.916 9.188l.006-.008c-.152-.122-.256-.302-.256-.513v-2.39L5.529 7.413c-.124.124-.196.296-.196.472V10H4V7.886c0-.534.208-1.037.586-1.414l2.275-2.276C6.983 4.075 7.15 4 7.333 4zm-2 6.054L8 11.12v.832c0 .67-.333 1.292-.89 1.664l-1.407.937-.74-1.109 1.407-.937c.185-.124.297-.332.297-.555v-1.9zm2-8.72v1.333H7.333V1.333h1.334z"/>
</svg>
